HIERARCHY
ROOT Hips
{
	OFFSET -0.001795 -0.223333 0.028219
	CHANNELS 6 Xposition Yposition Zposition Zrotation Yrotation Xrotation 
	JOINT LeftUpLeg
	{
		OFFSET 0.069520 -0.091406 -0.006815
		CHANNELS 3 Zrotation Yrotation Xrotation
		JOINT LeftLeg
		{
			OFFSET 0.034277 -0.375199 -0.004496
			CHANNELS 3 Zrotation Yrotation Xrotation
			JOINT LeftFoot
			{
				OFFSET -0.013596 -0.397961 -0.043693
				CHANNELS 3 Zrotation Yrotation Xrotation
				JOINT LeftToe
				{
					OFFSET 0.026358 -0.055791 0.119288
					CHANNELS 3 Zrotation Yrotation Xrotation
					End Site
					{
						OFFSET 0.000000 0.000000 0.000000
					}
				}
			}
		}
	}
	JOINT RightUpLeg
	{
		OFFSET -0.067670 -0.090522 -0.004320
		CHANNELS 3 Zrotation Yrotation Xrotation
		JOINT RightLeg
		{
			OFFSET -0.038290 -0.382569 -0.008850
			CHANNELS 3 Zrotation Yrotation Xrotation
			JOINT RightFoot
			{
				OFFSET 0.015774 -0.398415 -0.042312
				CHANNELS 3 Zrotation Yrotation Xrotation
				JOINT RightToe
				{
					OFFSET -0.025372 -0.048144 0.123348
					CHANNELS 3 Zrotation Yrotation Xrotation
					End Site
					{
						OFFSET 0.000000 0.000000 0.000000
					}
				}
			}
		}
	}
	JOINT Spine
	{
		OFFSET -0.002533 0.108963 -0.026696
		CHANNELS 3 Zrotation Yrotation Xrotation
		JOINT Spine1
		{
			OFFSET 0.005487 0.135180 0.001092
			CHANNELS 3 Zrotation Yrotation Xrotation
			JOINT Spine2
			{
				OFFSET 0.001457 0.052922 0.025425
				CHANNELS 3 Zrotation Yrotation Xrotation
				JOINT Neck
				{
					OFFSET -0.002778 0.213870 -0.042857
					CHANNELS 3 Zrotation Yrotation Xrotation
					JOINT Head
					{
						OFFSET 0.005152 0.064970 0.051349
						CHANNELS 3 Zrotation Yrotation Xrotation
						End Site
						{
							OFFSET 0.000000 0.000000 0.000000
						}
					}
				}
				JOINT LeftShoulder
				{
					OFFSET 0.078845 0.121749 -0.034090
					CHANNELS 3 Zrotation Yrotation Xrotation
					JOINT LeftArm
					{
						OFFSET 0.090977 0.030469 -0.008868
						CHANNELS 3 Zrotation Yrotation Xrotation
						JOINT LeftForeArm
						{
							OFFSET 0.259612 -0.012772 -0.027456
							CHANNELS 3 Zrotation Yrotation Xrotation
							JOINT LeftHand
							{
								OFFSET 0.249234 0.008986 -0.001171
								CHANNELS 3 Zrotation Yrotation Xrotation
								End Site
								{
									OFFSET 0.000000 0.000000 0.000000
								}
							}
						}
					}
				}
				JOINT RightShoulder
				{
					OFFSET -0.081759 0.118833 -0.038615
					CHANNELS 3 Zrotation Yrotation Xrotation
					JOINT RightArm
					{
						OFFSET -0.096012 0.032551 -0.009143
						CHANNELS 3 Zrotation Yrotation Xrotation
						JOINT RightForeArm
						{
							OFFSET -0.253742 -0.013329 -0.021401
							CHANNELS 3 Zrotation Yrotation Xrotation
							JOINT RightHand
							{
								OFFSET -0.255298 0.007772 -0.005559
								CHANNELS 3 Zrotation Yrotation Xrotation
								End Site
								{
									OFFSET 0.000000 0.000000 0.000000
								}
							}
						}
					}
				}
			}
		}
	}
}
MOTION
Frames: 16
Frame Time: 0.050000
0.000000 0.940580 0.000000 -5.001498 -14.448552 10.872656 6.314636 -0.315641 -11.930380 -4.791722 0.655997 -1.444540 -4.247424 -6.098802 7.145950 0.000000 0.000000 0.000000 -0.680954 1.149887 -11.235036 0.554554 -0.213964 -6.606046 -8.549214 -22.421333 21.713635 0.000000 0.000000 0.000000 -7.057047 0.910521 13.089751 -6.371445 3.635783 6.172143 1.167370 1.551390 2.326462 -5.899708 3.999898 -19.525932 0.000000 0.000000 0.000000 -29.876339 -28.420762 18.988327 -31.672672 -26.242152 2.105222 3.132892 -40.261162 0.728023 0.000000 0.000000 0.000000 24.678950 38.626219 20.769774 31.879301 24.020856 3.172975 -10.955915 49.306948 -3.422383 0.000000 0.000000 0.000000 
0.000730 0.939186 0.000945 -5.173232 -16.029038 11.286431 7.551281 -0.139400 -10.609213 -7.006829 0.920323 -3.981449 -3.741612 -5.083235 7.706304 0.000000 0.000000 0.000000 0.316607 1.219497 -11.593358 -1.102178 -0.191502 -6.877133 -7.572887 -21.300810 21.103721 0.000000 0.000000 0.000000 -7.486480 0.991270 12.352777 -5.661822 3.263324 5.871177 0.036770 1.851204 3.031068 -6.421145 4.221354 -21.569130 0.000000 0.000000 0.000000 -30.350634 -27.021670 18.283162 -32.463162 -25.784484 1.971665 4.041183 -43.285387 0.529109 0.000000 0.000000 0.000000 23.305329 39.058931 20.588482 29.174703 26.261745 3.196119 -12.061633 48.874342 -3.871194 0.000000 0.000000 0.000000 
0.001478 0.939546 0.001389 -5.195991 -14.892155 11.393355 8.423560 -0.074462 -11.457161 -8.430798 1.110913 -2.992923 -4.338488 -5.920204 8.073910 0.000000 0.000000 0.000000 0.915801 1.283321 -11.963478 -2.188410 -0.150620 -6.155469 -8.155617 -22.003069 21.495098 0.000000 0.000000 0.000000 -6.245454 0.695157 11.297760 -6.359847 3.702191 6.685328 -0.676776 2.267658 1.962472 -4.791890 3.505667 -16.579735 0.000000 0.000000 0.000000 -31.329228 -29.338249 19.746028 -30.790343 -24.078008 1.536798 1.179684 -42.581345 1.504528 0.000000 0.000000 0.000000 22.715005 39.349792 21.038630 26.017051 25.284796 2.454403 -13.428767 46.241930 -4.080816 0.000000 0.000000 0.000000 
0.001883 0.938829 0.001489 -5.496965 -15.594708 11.714276 8.938623 0.000014 -11.299929 -8.926245 1.171697 -3.523031 -4.014106 -5.425364 7.976391 0.000000 0.000000 0.000000 1.479188 1.342994 -12.273094 -2.725491 -0.139787 -6.198874 -7.708684 -21.491972 21.256579 0.000000 0.000000 0.000000 -6.456725 0.709518 10.404307 -6.672611 3.886093 6.592188 -1.201424 2.426873 2.502399 -4.817368 3.510973 -17.834679 0.000000 0.000000 0.000000 -29.870267 -29.503679 19.445965 -32.501617 -24.597310 1.856727 1.071546 -43.036275 1.582507 0.000000 0.000000 0.000000 21.477436 40.671091 21.517965 22.959129 25.960055 2.039179 -17.043525 43.273276 -5.128420 0.000000 0.000000 0.000000 
0.002184 0.939102 0.001465 -5.356021 -15.789218 11.299681 8.983240 0.018987 -11.186891 -9.331471 1.259820 -2.952071 -3.982263 -5.369261 7.979109 0.000000 0.000000 0.000000 1.634102 1.344322 -12.233280 -3.296295 -0.093174 -5.562456 -7.601739 -21.357372 21.074892 0.000000 0.000000 0.000000 -6.198717 0.653805 10.235340 -7.564080 4.402587 6.653366 -1.328351 2.514838 2.218660 -3.922336 3.012350 -17.111028 0.000000 0.000000 0.000000 -28.757845 -30.034599 19.434781 -34.179954 -24.346093 2.030703 2.334510 -42.373975 1.071363 0.000000 0.000000 0.000000 19.663879 40.596138 20.852204 19.618033 27.073734 1.638001 -17.658662 39.777008 -4.847109 0.000000 0.000000 0.000000 
0.002383 0.939538 0.001184 -5.048383 -15.565967 11.251900 8.963134 -0.000207 -10.950084 -9.848771 1.294227 -3.568261 -4.229261 -5.554171 8.624070 0.000000 0.000000 0.000000 1.395345 1.361336 -12.424944 -3.470399 -0.072017 -5.277655 -7.753422 -21.544359 21.180508 0.000000 0.000000 0.000000 -6.350016 0.687584 10.460258 -7.578583 4.305226 5.942455 -1.728020 2.570497 2.322231 -4.009717 3.082573 -17.419732 0.000000 0.000000 0.000000 -27.869189 -30.235789 19.219854 -35.119963 -24.115774 2.109018 1.521674 -42.177717 1.372921 0.000000 0.000000 0.000000 17.530073 41.511013 20.805082 16.313419 27.993480 1.120038 -18.337245 36.071380 -4.508181 0.000000 0.000000 0.000000 
0.002595 0.939742 0.000837 -4.804853 -15.348110 11.115103 8.695418 -0.037094 -10.855939 -9.817165 1.276988 -3.716163 -4.377256 -5.717239 8.846968 0.000000 0.000000 0.000000 1.396348 1.400466 -12.698712 -3.952473 -0.015801 -4.635460 -7.902153 -21.732992 21.170068 0.000000 0.000000 0.000000 -6.297058 0.678814 10.589234 -7.532750 4.287034 6.041394 -2.281564 2.491438 2.095182 -3.496258 2.805436 -17.069720 0.000000 0.000000 0.000000 -27.668361 -30.058701 18.956641 -35.910133 -23.919930 2.172639 2.061487 -41.543963 1.145605 0.000000 0.000000 0.000000 15.237588 41.710032 20.201590 14.061653 29.405347 0.796191 -18.356107 32.776463 -4.025933 0.000000 0.000000 0.000000 
0.002810 0.939733 0.000444 -4.592983 -15.262272 11.037072 8.560399 -0.058395 -10.693840 -9.979599 1.279749 -4.047713 -4.478630 -5.793625 9.097475 0.000000 0.000000 0.000000 1.168156 1.414119 -12.865011 -3.969300 0.004879 -4.323420 -7.998164 -21.850357 21.115901 0.000000 0.000000 0.000000 -6.184316 0.675525 10.956910 -7.700494 4.336709 5.740340 -2.574420 2.568031 1.910390 -3.489496 2.816032 -16.910231 0.000000 0.000000 0.000000 -27.148954 -30.417124 18.973110 -36.340145 -23.958145 2.271364 1.688464 -41.034235 1.259503 0.000000 0.000000 0.000000 13.188184 41.507379 19.456139 12.638098 30.944794 0.590281 -17.590726 30.834032 -3.542091 0.000000 0.000000 0.000000 
0.003052 0.939745 0.000206 -4.385235 -15.416135 10.992458 8.326392 -0.080280 -10.569017 -9.995238 1.273968 -4.292614 -4.449437 -5.699722 9.246544 0.000000 0.000000 0.000000 1.099996 1.448785 -13.128585 -4.285782 0.044981 -3.927886 -7.937829 -21.791565 21.002820 0.000000 0.000000 0.000000 -6.341584 0.711262 11.115387 -7.615817 4.269275 5.543050 -2.817179 2.592295 1.893791 -3.244367 2.675250 -16.765509 0.000000 0.000000 0.000000 -26.857960 -30.403366 18.874202 -36.539025 -24.279258 2.391744 1.873489 -39.929541 1.153406 0.000000 0.000000 0.000000 12.070325 41.551598 19.117461 11.407404 32.208782 0.379330 -17.182759 29.756823 -3.292756 0.000000 0.000000 0.000000 
0.003263 0.939868 0.000195 -4.282553 -15.681052 10.927728 8.104808 -0.098226 -10.278639 -9.858349 1.245284 -4.675741 -4.360547 -5.527898 9.355309 0.000000 0.000000 0.000000 0.865281 1.463898 -13.301737 -4.103591 0.056330 -3.606478 -7.832026 -21.670404 20.850231 0.000000 0.000000 0.000000 -6.448806 0.733416 11.131998 -7.565136 4.229116 5.381794 -2.962049 2.675095 1.940091 -3.245378 2.670027 -16.432735 0.000000 0.000000 0.000000 -26.405993 -30.569214 18.854227 -36.774169 -24.385615 2.453472 2.143484 -39.000692 1.024734 0.000000 0.000000 0.000000 11.337071 41.641980 18.921495 11.071009 32.942714 0.326420 -17.836731 30.749894 -3.595503 0.000000 0.000000 0.000000 
0.003397 0.940257 0.000604 -4.290937 -15.773880 10.942747 8.106377 -0.096410 -10.070906 -9.885026 1.236466 -5.001773 -4.365330 -5.470270 9.562640 0.000000 0.000000 0.000000 0.753257 1.442605 -13.179095 -3.910071 0.031697 -3.832668 -7.757554 -21.582537 20.948061 0.000000 0.000000 0.000000 -6.407400 0.714533 10.853222 -7.454730 4.189629 5.512726 -3.099977 2.649382 1.907835 -3.021912 2.532449 -16.129139 0.000000 0.000000 0.000000 -26.239426 -30.697331 18.904019 -36.341994 -24.418884 2.412842 2.097690 -37.838007 0.994110 0.000000 0.000000 0.000000 11.180464 41.654292 18.861357 11.787732 33.787368 0.526504 -18.641260 32.219294 -4.021354 0.000000 0.000000 0.000000 
0.003464 0.940508 0.001318 -4.204876 -15.938904 10.943830 8.049992 -0.100818 -9.770577 -10.000373 1.233821 -5.462860 -4.355968 -5.379154 9.808190 0.000000 0.000000 0.000000 0.528552 1.472654 -13.464546 -3.721860 0.053993 -3.322035 -7.717095 -21.541792 20.810169 0.000000 0.000000 0.000000 -6.597790 0.734128 10.530625 -7.127310 4.034108 5.667098 -2.997612 2.687044 1.660649 -2.388598 2.158145 -16.004853 0.000000 0.000000 0.000000 -26.172194 -30.525620 18.775945 -36.414785 -24.281155 2.392000 1.843669 -37.218625 1.058519 0.000000 0.000000 0.000000 12.419331 41.857383 19.380162 12.514524 34.223912 0.739758 -19.073275 33.733147 -4.360069 0.000000 0.000000 0.000000 
0.003587 0.940701 0.002244 -4.286059 -15.999946 10.948952 8.210094 -0.082068 -9.688161 -10.182925 1.258761 -5.455020 -4.348536 -5.357015 9.845015 0.000000 0.000000 0.000000 0.355258 1.455833 -13.392220 -3.297648 0.031052 -3.336426 -7.696295 -21.512713 20.799877 0.000000 0.000000 0.000000 -6.591451 0.720695 10.257485 -6.890559 3.883082 5.461002 -2.880157 2.890256 1.762575 -2.098750 2.005470 -16.239668 0.000000 0.000000 0.000000 -26.393203 -30.522002 18.802219 -35.837295 -24.211424 2.303499 1.178316 -36.608902 1.243254 0.000000 0.000000 0.000000 13.369705 41.768214 19.669421 14.668509 34.814555 1.298823 -20.166219 35.074744 -4.889873 0.000000 0.000000 0.000000 
0.003906 0.940521 0.003172 -4.324921 -16.095017 11.089477 8.191265 -0.082580 -9.823876 -10.152986 1.262516 -5.347719 -4.271433 -5.285250 9.701499 0.000000 0.000000 0.000000 0.474550 1.490110 -13.604377 -3.521782 0.054367 -3.131898 -7.645197 -21.460947 20.728662 0.000000 0.000000 0.000000 -6.544835 0.695206 9.778696 -6.685139 3.772708 5.442305 -2.490878 2.612949 1.811321 -1.844986 1.819496 -16.323365 0.000000 0.000000 0.000000 -26.653245 -30.256063 18.883491 -35.335064 -24.109704 2.163916 1.223891 -36.438660 1.232651 0.000000 0.000000 0.000000 15.286564 42.161217 20.423611 16.119657 34.992961 1.697561 -19.969492 35.869585 -4.964262 0.000000 0.000000 0.000000 
0.004321 0.940451 0.003908 -4.332339 -16.303974 10.988747 8.224981 -0.073765 -9.449127 -10.310939 1.272426 -5.685053 -4.216912 -5.185949 9.760534 0.000000 0.000000 0.000000 0.228014 1.501500 -13.757471 -3.150893 0.064467 -2.632451 -7.592962 -21.395859 20.507228 0.000000 0.000000 0.000000 -6.600403 0.705248 9.788706 -6.405023 3.636976 5.522055 -2.114817 2.721885 2.002050 -1.771012 1.777773 -16.676370 0.000000 0.000000 0.000000 -27.078707 -30.412309 19.171889 -34.692699 -24.154969 2.071017 1.809019 -36.487583 1.042997 0.000000 0.000000 0.000000 16.709662 42.295874 20.959823 18.204520 35.486386 2.279129 -21.401526 36.218557 -5.470820 0.000000 0.000000 0.000000 
0.004706 0.940091 0.004425 -4.311947 -16.595558 10.931388 8.051354 -0.082566 -9.329819 -10.152234 1.262296 -5.674597 -4.049066 -5.001907 9.530242 0.000000 0.000000 0.000000 0.209155 1.523562 -13.913522 -3.236019 0.090924 -2.264824 -7.468764 -21.244102 20.257595 0.000000 0.000000 0.000000 -6.704493 0.722397 9.739908 -5.975056 3.415672 5.547026 -1.466488 2.450424 2.439093 -1.511724 1.603199 -17.719368 0.000000 0.000000 0.000000 -27.200065 -30.171863 19.298233 -34.644631 -24.356251 2.032392 2.034470 -37.191874 1.014580 0.000000 0.000000 0.000000 18.801549 42.942333 21.900671 19.628678 35.751611 2.705662 -22.277882 36.240780 -5.762140 0.000000 0.000000 0.000000 
